<svg width="512" height="512" viewBox="0 0 512 512" xmlns="http://www.w3.org/2000/svg">
  <defs>
    <linearGradient id="gradient" x1="0%" y1="0%" x2="100%" y2="100%">
      <stop offset="0%" style="stop-color:#667eea;stop-opacity:1" />
      <stop offset="100%" style="stop-color:#764ba2;stop-opacity:1" />
    </linearGradient>
  </defs>
  
  <!-- Background Circle -->
  <circle cx="256" cy="256" r="240" fill="url(#gradient)" stroke="white" stroke-width="16"/>
  
  <!-- Chat Bubble -->
  <path d="M160 180 C140 180, 120 200, 120 220 L120 280 C120 300, 140 320, 160 320 L200 320 L220 340 L240 320 L320 320 C340 320, 360 300, 360 280 L360 220 C360 200, 340 180, 320 180 Z" 
        fill="white" opacity="0.9"/>
  
  <!-- OSE Text -->
  <text x="256" y="260" font-family="Arial Black, sans-serif" font-size="64" font-weight="bold" 
        text-anchor="middle" fill="#667eea">OSE</text>
  
  <!-- Speech waves -->
  <path d="M380 200 Q400 220, 380 240" stroke="white" stroke-width="8" fill="none" opacity="0.8"/>
  <path d="M400 180 Q430 220, 400 260" stroke="white" stroke-width="6" fill="none" opacity="0.6"/>
  <path d="M420 160 Q460 220, 420 280" stroke="white" stroke-width="4" fill="none" opacity="0.4"/>
</svg>